<svg xmlns="http://www.w3.org/2000/svg" width="720" height="1280" viewBox="0 0 720 1280" fill="none">
  <style>
    text { font-family: Inter, -apple-system, BlinkMacSystemFont, "Segoe UI", sans-serif; fill: #24262b; }
    .muted { fill: #6b717a; }
    .soft { fill: #f5f6f8; }
    .line { stroke: #dde1e6; }
    .card { fill: #ffffff; stroke: #dde1e6; }
    .small { font-size: 22px; }
    .body { font-size: 28px; }
    .title { font-size: 34px; font-weight: 750; }
    .big { font-size: 42px; font-weight: 760; }
  </style>
  <rect width="720" height="1280" fill="#f8f9fb"/>
  <rect x="0" y="0" width="720" height="80" fill="#edf1f3"/>
  <text class="big" x="42" y="52">16:49</text>
  <text class="body" font-weight="700" x="462" y="51">5G</text>
  <text class="body" font-weight="700" x="535" y="51">5G</text>
  <rect x="626" y="22" width="58" height="30" rx="7" fill="#111318"/>
  <text class="small" fill="#fff" font-weight="700" x="642" y="45">83</text>
  <rect x="0" y="80" width="600" height="1200" rx="0" fill="#f7f8fa"/>
  <path d="M600 80C632 84 652 106 652 140V1280H600V80Z" fill="#f7f8fa"/>
  <rect x="600" y="80" width="120" height="1200" fill="#111318" opacity="0.48"/>
  <text class="big muted" x="24" y="160">Workspace</text>
  <g transform="translate(506 132)" stroke="#252931" stroke-width="6" stroke-linecap="round">
    <circle cx="34" cy="34" r="22"/>
    <path d="M34 4v12M34 52v12M4 34h12M52 34h12M13 13l9 9M55 13l-9 9M13 55l9-9M55 55l-9-9"/>
  </g>
  <rect class="card" x="24" y="196" width="552" height="256" rx="28"/>
  <rect class="soft" x="50" y="222" width="66" height="66" rx="18"/>
  <path d="M63 262c7-18 33-18 40 0 14 1 20 20 7 28H62c-14-8-8-27 1-28Z" stroke="#53606d" stroke-width="5" fill="none"/>
  <text class="title" x="136" y="258">Connected</text>
  <text class="body muted" x="136" y="295">Connected</text>
  <rect class="soft" x="50" y="326" width="244" height="60" rx="19"/>
  <text class="body muted" x="66" y="366">Projects</text>
  <text class="title" x="262" y="366">7</text>
  <rect class="soft" x="306" y="326" width="244" height="60" rx="19"/>
  <text class="body muted" x="322" y="366">Chats</text>
  <text class="title" x="506" y="366">16</text>
  <text class="title" x="90" y="426">gpt-5.5 - OpenAI</text>
  <rect x="24" y="482" width="552" height="78" rx="38" fill="#111827"/>
  <text class="title" fill="#fff" x="260" y="533">New chat</text>
  <text class="big" fill="#fff" x="212" y="536">+</text>
  <g transform="translate(20 594)">
    <rect class="card" x="0" y="0" width="560" height="142" rx="18"/>
    <text class="title" x="104" y="62">NexaAct</text>
    <text class="body muted" x="104" y="102">1 chats</text>
    <text class="big muted" x="408" y="82">+</text>
    <text class="big muted" x="506" y="82">...</text>
  </g>
  <g transform="translate(20 792)">
    <text class="title" x="104" y="28">NexaAct Web</text>
    <text class="body muted" x="104" y="68">1 chats</text>
    <text class="big muted" x="408" y="50">+</text>
    <text class="big muted" x="506" y="50">...</text>
  </g>
  <g transform="translate(20 956)">
    <text class="title" x="104" y="28">NexaB</text>
    <text class="body muted" x="104" y="68">1 chats</text>
    <text class="big muted" x="408" y="50">+</text>
    <text class="big muted" x="506" y="50">...</text>
  </g>
  <g transform="translate(20 1120)">
    <text class="title" x="104" y="28">Uncategorized</text>
    <text class="body muted" x="104" y="68">6 chats</text>
    <text class="big muted" x="408" y="50">+</text>
    <text class="big muted" x="506" y="50">...</text>
  </g>
</svg>
